<svg xmlns="http://www.w3.org/2000/svg" width="4267" height="4267" viewBox="0 0 4267 4267">
  <defs>
    <style>
      .cls-1, .cls-2 {
        fill: #3baa70;
      }

      .cls-1 {
        fill-rule: evenodd;
      }
    </style>
  </defs>
  <path id="Эллипс_1" data-name="Эллипс 1" class="cls-1" d="M2133.5,226.34c1053.3,0,1907.16,853.86,1907.16,1907.16S3186.8,4040.66,2133.5,4040.66,226.34,3186.8,226.34,2133.5,1080.2,226.34,2133.5,226.34ZM2134,581c857.7,0,1553,695.3,1553,1553S2991.7,3687,2134,3687,581,2991.7,581,2134,1276.3,581,2134,581Z"/>
  <rect id="Прямоугольник_1" data-name="Прямоугольник 1" class="cls-2" x="1068" y="756" width="189" height="2892"/>
  <rect id="Прямоугольник_1_копия_4" data-name="Прямоугольник 1 копия 4" class="cls-2" x="2996.44" y="687.5" width="189" height="2892"/>
  <rect id="Прямоугольник_1_копия" data-name="Прямоугольник 1 копия" class="cls-2" x="1717" y="382" width="189" height="3408"/>
  <rect id="Прямоугольник_1_копия-2" data-name="Прямоугольник 1 копия" class="cls-2" x="2370" y="481" width="189" height="2004"/>
  <rect id="Прямоугольник_1_копия-3" data-name="Прямоугольник 1 копия" class="cls-2" x="2370" y="3112" width="189" height="679"/>
  <path id="Эллипс_3" data-name="Эллипс 3" class="cls-1" d="M2460.13,2437.19c208.44,0,377.41,168.97,377.41,377.4S2668.57,3192,2460.13,3192s-377.41-168.97-377.41-377.41S2251.69,2437.19,2460.13,2437.19Zm1.41,148.81c129.23,0,234,104.77,234,234s-104.77,234-234,234-234-104.77-234-234S2332.3,2586,2461.54,2586Z"/>
</svg>
