<svg width="24" height="24" viewBox="0 0 24 24" fill="none" xmlns="http://www.w3.org/2000/svg">
<path d="M16 6C16 8.20914 14.2091 10 12 10C9.79086 10 8 8.20914 8 6C8 3.79086 9.79086 2 12 2C14.2091 2 16 3.79086 16 6Z" fill="#fff"/>
<path d="M19 22C20.1046 22 21.0222 21.0938 20.7787 20.0164C20.4068 18.3705 19.5761 16.8482 18.364 15.636C16.6761 13.9482 14.3869 13 12 13C9.61305 13 7.32387 13.9482 5.63604 15.636C4.42391 16.8482 3.59324 18.3705 3.22129 20.0164C2.97781 21.0938 3.89543 22 5 22H19Z" fill="#fff"/>
</svg>
